<svg xmlns="http://www.w3.org/2000/svg" xmlns:xlink="http://www.w3.org/1999/xlink" width="1300" height="650"><defs><g id="b"><use xlink:href="#a" transform="rotate(-144)"/><use xlink:href="#a" transform="rotate(-72)"/><use xlink:href="#a"/><use xlink:href="#a" transform="rotate(72)"/><use xlink:href="#a" transform="rotate(144)"/></g><g id="c"><use xlink:href="#b" x="-.252"/><use xlink:href="#b" x="-.126"/><use xlink:href="#b"/><use xlink:href="#b" x=".126"/><use xlink:href="#b" x=".252"/></g><g id="d"><use xlink:href="#c" x="-.063"/><use xlink:href="#b" x=".315"/></g><g id="e"><use xlink:href="#d"/><use xlink:href="#c" y=".054"/><use xlink:href="#d" y=".108"/><use xlink:href="#c" y=".162"/></g><g id="g"><use xlink:href="#e" y="-.216"/><use xlink:href="#e"/><use xlink:href="#d" y=".216"/></g><path id="a" fill="#FFF" d="M-.162 0 0-.5l.162.5z" transform="scale(.0616)"/><path id="f" fill="#B22234" d="M0 0h1300v50H0z"/></defs><path fill="#FFF" d="M0 0h1300v650H0z"/><use xlink:href="#f"/><use xlink:href="#f" y="100"/><use xlink:href="#f" y="200"/><use xlink:href="#f" y="300"/><use xlink:href="#f" y="400"/><use xlink:href="#f" y="500"/><use xlink:href="#f" y="600"/><path fill="#3C3B6E" d="M0 0h494v350H0z"/><use xlink:href="#g" transform="matrix(650 0 0 650 247 175)"/><svg width="1300" height="650" viewBox="0 0 60 30"><clipPath id="i"><path d="m30 15 30 15V15H0v15h30z"/></clipPath><clipPath id="h"><path d="M0 30h60V0z"/></clipPath><g clip-path="url(#h)"><path fill="#00247d" d="M0 0v30h60V0z"/><path stroke="#fff" stroke-width="6" d="m0 0 60 30m0-30L0 30"/><path fill="none" stroke="#cf142b" stroke-width="4" d="m0 30 30-15 30 15" clip-path="url(#i)"/><path stroke="#fff" stroke-width="10" d="M30 0v30M0 15h60"/><path stroke="#cf142b" stroke-width="6" d="M30 0v30M0 15h60"/></g></svg></svg>