<svg xmlns="http://www.w3.org/2000/svg" width="160" height="23" fill="none"><path fill="#19288A" fill-rule="evenodd" d="M72.153 0h-4.337v21.49h4.337V0ZM10.787.578c-2.345 0-4.513.753-6.271 2.028l6.212 6.198 6.33-6.256a11.024 11.024 0 0 0-6.271-1.97Zm0 21.32c-2.345 0-4.513-.754-6.271-2.028l6.212-6.198 6.33 6.256a11.024 11.024 0 0 1-6.271 1.97ZM2.05 5.038A10.366 10.366 0 0 0 0 11.237c0 2.317.762 4.46 1.993 6.198l6.27-6.198L2.052 5.04Zm19.459 6.198c0-2.317-.762-4.46-2.052-6.198l-6.212 6.198 6.271 6.198a10.723 10.723 0 0 0 1.993-6.198Zm14.3 6.722h-1.934V4.81h2.403c4.044 0 6.095 2.201 6.095 6.488 0 4.402-2.227 6.661-6.564 6.661Zm8.264-14.134c-1.934-1.737-4.572-2.606-8.03-2.606h-6.622V21.55H35.4c3.75 0 6.564-.87 8.557-2.665 1.992-1.796 2.989-4.344 2.989-7.704 0-3.186-.997-5.619-2.872-7.357Zm19.34 16.625c-.763.406-1.524.637-2.404.811-.879.174-1.875.232-3.047.232-2.52 0-4.513-.637-5.92-1.97-1.406-1.332-2.11-3.244-2.11-5.676 0-2.491.645-4.403 1.935-5.793 1.348-1.39 3.164-2.085 5.45-2.085 2.227 0 3.927.637 5.158 1.853 1.23 1.217 1.817 2.955 1.817 5.098v2.027h-9.964c.059 1.159.41 2.028 1.055 2.665s1.583.927 2.813.927c.938 0 1.817-.116 2.638-.29.82-.174 1.7-.463 2.578-.869v3.07Zm-3.165-8.515c0-.927-.293-1.68-.82-2.201-.528-.521-1.232-.753-2.11-.811-.88 0-1.525.29-2.052.81-.528.522-.82 1.275-.88 2.202h5.862Zm29.13 8.515c-.763.406-1.525.637-2.404.811-.82.174-1.875.232-3.047.232-2.52 0-4.513-.637-5.92-1.97-1.406-1.332-2.11-3.244-2.11-5.676 0-2.491.645-4.403 1.934-5.793 1.349-1.39 3.107-2.085 5.451-2.085 2.227 0 3.927.637 5.158 1.853 1.23 1.217 1.816 2.955 1.816 5.098v2.027h-9.963c.059 1.159.41 2.028 1.055 2.665s1.582.927 2.813.927c.938 0 1.817-.116 2.637-.29.821-.174 1.7-.463 2.58-.869v3.07Zm-3.166-8.515c0-.927-.293-1.68-.82-2.201-.528-.521-1.23-.753-2.11-.811-.88 0-1.524.29-2.051.81-.528.522-.82 1.275-.88 2.202h5.861ZM99.1 17.493c-.351-.29-.527-.695-.527-1.274V8.978h4.513V5.966h-4.513V2.664h-2.755l-1.23 3.302-2.403 1.332v1.68h2.05v7.414c0 1.68.411 2.955 1.173 3.824.82.868 2.051 1.274 3.81 1.274 1.582 0 2.93-.232 3.985-.753v-3.302a8.823 8.823 0 0 1-2.755.464 1.792 1.792 0 0 1-1.348-.406Zm19.932 2.957c-.762.406-1.524.637-2.403.811-.879.174-1.876.232-3.048.232-2.52 0-4.513-.637-5.919-1.97-1.407-1.332-2.11-3.244-2.11-5.676 0-2.491.644-4.403 1.934-5.793 1.348-1.39 3.165-2.085 5.45-2.085 2.227 0 3.927.637 5.158 1.853 1.231 1.217 1.817 2.955 1.817 5.098v2.027h-9.964c.059 1.159.411 2.028 1.055 2.665.645.637 1.583.927 2.814.927.937 0 1.816-.116 2.637-.29.82-.174 1.7-.463 2.579-.869v3.07Zm-3.165-8.515c0-.927-.293-1.68-.821-2.201-.527-.521-1.23-.753-2.11-.811-.879 0-1.523.29-2.051.81-.527.522-.82 1.275-.879 2.202h5.861Zm18.117 10.194 7.678-18.71h.117a33.165 33.165 0 0 0-.176 3.36v15.408h1.465V1.797H140.9l-7.268 17.899h-.058l-7.268-17.9h-2.227V22.13h1.407V6.894c0-1.216-.059-2.374-.117-3.533h.117l7.619 18.768h.879Zm24.492-8.4c0-1.68-.351-3.012-1.113-3.939s-1.817-1.448-3.224-1.448c-1.465 0-2.637.464-3.516 1.39-.879.927-1.348 2.26-1.524 3.997h9.377Zm.938 7.473a9.46 9.46 0 0 1-2.403.753 14.84 14.84 0 0 1-2.344.174c-2.227 0-3.927-.638-5.158-1.912-1.289-1.332-1.875-3.128-1.875-5.445 0-2.26.586-4.113 1.758-5.503 1.172-1.39 2.813-2.085 4.806-2.085 1.758 0 3.165.579 4.22 1.795 1.055 1.159 1.582 2.839 1.582 4.866v1.1h-10.96c.059 1.97.528 3.418 1.466 4.46.937.986 2.344 1.507 4.102 1.507.879 0 1.641-.058 2.286-.174.703-.116 1.524-.405 2.52-.81v1.274Z" clip-rule="evenodd"/></svg>