<svg xmlns="http://www.w3.org/2000/svg" width="84" height="29" fill="none"><path fill="#F34" fill-rule="evenodd" d="M6.746 0h6.033a.258.258 0 0 1 .252.3L8.59 27.435a.257.257 0 0 1-.238.216l-6.634.383h-.014a.254.254 0 0 1-.19-.085.26.26 0 0 1-.062-.216l3.747-22.68C5.121 1.671.992.854.49.727-.056.591.001 0 .001 0zm32.321.122A.25.25 0 0 0 38.853 0h-6.508a.25.25 0 0 0-.222.136L23.14 17.531 20.084.209A.251.251 0 0 0 19.838 0h-6.553a.249.249 0 0 0-.193.092.257.257 0 0 0-.053.21l4.852 26.05a.251.251 0 0 0 .26.205l7.564-.438a.25.25 0 0 0 .208-.136L39.075.372a.257.257 0 0 0-.008-.25m20.27 5.497c-.084-.787-.262-1.486-.53-2.079A5.267 5.267 0 0 0 57.8 2.031a6.513 6.513 0 0 0-1.234-.999C55.532.433 54.303.086 52.898 0H40.466a.246.246 0 0 0-.242.209L36.21 24.792a.254.254 0 0 0 .06.208.241.241 0 0 0 .181.082h.014l6.25-.365a.247.247 0 0 0 .228-.208l.747-4.633h6.085c1.384-.085 2.69-.43 3.883-1.025 1.032-.513 2.038-1.34 2.992-2.456.962-1.127 1.633-2.73 1.992-4.767l.571-3.295c.166-1.019.208-1.932.124-2.714m-7.208 5.874a2.53 2.53 0 0 1-.409.99c-.171.25-.403.473-.688.663-.27.18-.644.271-1.109.271h-5.216l1.103-7h5.295c.452 0 .781.09.979.27.215.196.371.417.463.648.096.272.132.602.11.957zM83.752 0h-6.325a.253.253 0 0 0-.244.22L74.93 14.556 70.045.174A.25.25 0 0 0 69.81 0h-6.324a.253.253 0 0 0-.245.22l-3.86 24.556a.28.28 0 0 0 .06.22.24.24 0 0 0 .185.087l6.436-.39a.254.254 0 0 0 .23-.22l1.613-10.363 3.408 10.075c.037.11.137.177.247.174l8.575-.52a.253.253 0 0 0 .23-.22L83.997.306a.272.272 0 0 0-.055-.213.242.242 0 0 0-.189-.093" clip-rule="evenodd"/></svg>